<svg width="313" height="45" viewBox="0 0 313 45" fill="none" xmlns="http://www.w3.org/2000/svg">
<path d="M196.954 17.6273H191.773V12.093H196.954V17.6273ZM198.328 10.7745H190.436V18.9459H198.328V10.7745ZM184.716 19.0945H187.39V21.6759C186.461 21.8245 185.551 21.973 184.716 22.103V19.0945ZM187.39 11.5359V14.1173H184.716V11.5359H187.39ZM184.716 15.2873H187.39V17.943H184.716V15.2873ZM189.934 22.493L189.841 21.2859L188.671 21.4716V11.5359H189.748V10.273H182.394V11.5359H183.434V22.2887L182.19 22.4745L182.487 23.7745L187.39 22.9387V26.4302H188.671V22.7159L189.934 22.493ZM191.884 20.7659C191.383 22.6416 190.417 24.4616 189.21 25.6316C189.544 25.8173 190.101 26.1887 190.343 26.4116C191.55 25.1116 192.627 23.1616 193.221 21.063L191.884 20.7659ZM195.487 21.1745C196.453 22.7902 197.474 24.9445 197.883 26.2445L199.183 25.7059C198.756 24.3873 197.697 22.2887 196.694 20.7102L195.487 21.1745Z" fill="white"/>
<path d="M216.176 13.7459C215.451 15.7887 214.114 18.463 213.093 20.1345L214.226 20.7473C215.284 19.0387 216.528 16.4759 217.42 14.3587L216.176 13.7459ZM205.85 20.0787C205.348 18.463 204.216 15.7516 203.231 13.6902L201.95 14.0802C202.916 16.1787 204.03 18.9645 204.476 20.5987L205.85 20.0787ZM212.61 24.0902V9.71588H211.236V24.0902H208.097V9.69731H206.723V24.0902H201.56V25.4459H217.791V24.0902H212.61Z" fill="white"/>
<path d="M231.256 14.1916H234.506C234.153 16.4945 233.67 18.4445 232.89 20.0787C232.147 18.333 231.608 16.3273 231.256 14.1916ZM237.087 14.1916V12.8916H231.664C231.961 11.8702 232.203 10.793 232.407 9.67874L231.033 9.45588C230.494 12.5387 229.547 15.4916 228.136 17.423L227.486 16.9402L227.226 17.0145H225.313C225.721 16.5873 226.093 16.123 226.483 15.6587H229.064V14.433H227.356C228.191 13.1516 228.916 11.7773 229.528 10.2545L228.228 9.9016C227.616 11.5545 226.78 13.0587 225.796 14.433H224.626V12.5945H226.928V11.4059H224.626V9.45588H223.344V11.4059H220.911V12.5945H223.344V14.433H220.131V15.6587H224.811C224.384 16.123 223.957 16.5873 223.474 17.0145H221.654V18.1287H222.118C221.45 18.6116 220.763 19.0759 220.02 19.4659C220.28 19.7073 220.781 20.2273 220.986 20.4873C222.118 19.8187 223.196 19.0387 224.18 18.1287H226.13C225.517 18.723 224.718 19.3545 224.013 19.7816L224.031 19.8002V21.1373C222.546 21.3045 221.171 21.4345 220.094 21.5273L220.261 22.7902C221.338 22.6787 222.638 22.5302 224.031 22.3816V24.9445C224.031 25.1487 223.976 25.2045 223.716 25.223C223.474 25.223 222.676 25.2416 221.766 25.2045C221.951 25.5759 222.137 26.0402 222.193 26.4116C223.381 26.4116 224.18 26.4116 224.681 26.2073C225.201 26.003 225.331 25.6687 225.331 24.963V22.233L229.213 21.8059V20.6173C227.913 20.7659 226.594 20.8773 225.331 21.0073V20.1159C226.316 19.4473 227.374 18.5559 228.136 17.683C228.488 17.9245 228.934 18.333 229.138 18.5373C229.584 17.9059 230.03 17.1816 230.383 16.3645C230.81 18.2773 231.348 20.0045 232.073 21.5087C231.014 23.1059 229.584 24.3316 227.653 25.2416C227.931 25.5387 228.34 26.1516 228.488 26.4859C230.308 25.5387 231.701 24.3502 232.797 22.883C233.707 24.3873 234.858 25.613 236.27 26.4487C236.474 26.0587 236.901 25.5387 237.236 25.2602C235.75 24.4802 234.561 23.1987 233.651 21.6016C234.766 19.6145 235.471 17.1816 235.917 14.1916H237.087Z" fill="white"/>
<path d="M243.346 22.2145V20.7659H251.851V22.2145H243.346ZM251.851 18.2959V19.7445H243.346V18.2959H251.851ZM253.226 17.1445H241.99V26.4487H243.346V23.2359H251.851V24.8702C251.851 25.1859 251.74 25.2787 251.35 25.2973C251.016 25.3159 249.623 25.3159 248.248 25.2787C248.434 25.613 248.657 26.0773 248.731 26.4302C250.533 26.4302 251.684 26.4302 252.334 26.2445C252.984 26.0402 253.226 25.7059 253.226 24.8887V17.1445ZM243.568 14.823C244.516 14.173 245.5 13.3745 246.41 12.5387H250.161L249.363 13.0402C249.92 13.4487 250.514 13.9502 251.108 14.4516L243.568 14.823ZM255.677 11.313H248.787C248.471 10.7187 248.007 9.93874 247.636 9.34445L246.28 9.73445C246.558 10.1987 246.893 10.793 247.153 11.313H239.464V12.5387H244.367C243.42 13.4116 242.473 14.1173 242.12 14.3587C241.637 14.6745 241.266 14.8973 240.913 14.953C241.061 15.3245 241.303 16.0302 241.358 16.3459C241.971 16.1045 242.918 16.0673 252.334 15.5102C252.891 16.0116 253.374 16.4573 253.708 16.8287L254.841 16.0116C253.876 15.1016 252.093 13.6345 250.681 12.5387H255.677V11.313Z" fill="white"/>
<path d="M272.781 10.9602H260.32V12.353H272.781V10.9602ZM274.694 17.553V16.1602H258.296V17.553H264.034C262.846 19.9302 261.323 22.2144 260.766 22.8459C260.19 23.6073 259.763 24.1087 259.354 24.2202C259.54 24.6473 259.781 25.4087 259.874 25.743C260.617 25.4459 261.694 25.3716 271.853 24.4802C272.317 25.223 272.688 25.9102 272.986 26.4673L274.267 25.6873C273.376 23.9787 271.5 21.2673 269.94 19.1873L268.714 19.8373C269.457 20.8587 270.293 22.0473 271.036 23.2173L261.731 23.923C263.217 22.1402 264.703 19.8559 265.947 17.553H274.694Z" fill="white"/>
<path d="M293.711 18.5559H286.097V12.0745H292.671V10.7187H278.148V12.0745H284.686V18.5559H277.183V19.9116H284.686V26.4116H286.097V19.9116H293.711V18.5559ZM279.448 13.3559C280.154 14.7116 280.86 16.513 281.12 17.6087L282.42 17.163C282.178 16.0673 281.417 14.3216 280.656 12.9845L279.448 13.3559ZM289.291 17.6645C290.016 16.5502 290.907 14.7859 291.576 13.3002L290.127 12.8916C289.663 14.2287 288.808 16.123 288.121 17.2745L289.291 17.6645Z" fill="white"/>
<path d="M308.828 19.9673V24.0716H299.858V19.9673H308.828ZM298.466 26.4116H299.858V25.4087H308.828V26.3745H310.277V18.6487H298.466V26.4116ZM306.191 12.2787C307.083 13.0773 308.03 14.043 308.884 15.0087L299.413 15.473C301.047 13.9316 302.7 12.0187 304.167 10.013L302.811 9.40017C301.363 11.703 299.208 14.043 298.54 14.6373C297.927 15.2502 297.444 15.6587 297.036 15.733C297.184 16.1045 297.426 16.7916 297.481 17.0887C298.206 16.8287 299.283 16.7916 309.887 16.1973C310.351 16.773 310.741 17.3116 311.02 17.7945L312.19 16.9587C311.224 15.4173 309.088 13.1516 307.287 11.573L306.191 12.2787Z" fill="white"/>
<path d="M183.852 37.2266C184.463 37.2266 184.926 36.9823 185.298 36.5516L184.971 36.1787C184.668 36.5066 184.328 36.7059 183.878 36.7059C182.978 36.7059 182.412 35.9602 182.412 34.7709C182.412 33.5944 183.003 32.8616 183.897 32.8616C184.302 32.8616 184.617 33.048 184.861 33.3116L185.183 32.9259C184.913 32.6237 184.463 32.3409 183.891 32.3409C182.695 32.3409 181.801 33.2666 181.801 34.7902C181.801 36.3202 182.682 37.2266 183.852 37.2266Z" fill="white"/>
<path d="M186.929 37.2266C187.09 37.2266 187.186 37.2073 187.27 37.1752L187.186 36.7252C187.122 36.738 187.096 36.738 187.064 36.738C186.974 36.738 186.897 36.6673 186.897 36.4873V32.0259H186.312V36.4487C186.312 36.9437 186.492 37.2266 186.929 37.2266Z" fill="white"/>
<path d="M189.695 37.2266C190.55 37.2266 191.315 36.558 191.315 35.4009C191.315 34.2373 190.55 33.5623 189.695 33.5623C188.84 33.5623 188.075 34.2373 188.075 35.4009C188.075 36.558 188.84 37.2266 189.695 37.2266ZM189.695 36.738C189.09 36.738 188.685 36.2044 188.685 35.4009C188.685 34.5973 189.09 34.0509 189.695 34.0509C190.299 34.0509 190.71 34.5973 190.71 35.4009C190.71 36.2044 190.299 36.738 189.695 36.738Z" fill="white"/>
<path d="M193.445 37.2266C193.927 37.2266 194.275 36.9759 194.602 36.5966H194.622L194.667 37.143H195.155V33.6523H194.57V36.1273C194.236 36.5452 193.985 36.7187 193.625 36.7187C193.162 36.7187 192.97 36.4423 192.97 35.793V33.6523H192.385V35.8637C192.385 36.7509 192.712 37.2266 193.445 37.2266Z" fill="white"/>
<path d="M197.717 37.2266C198.134 37.2266 198.501 37.0016 198.777 36.7316H198.797L198.848 37.143H199.324V32.0259H198.745V33.3694L198.771 33.9737C198.462 33.7166 198.199 33.5623 197.787 33.5623C196.99 33.5623 196.277 34.2694 196.277 35.4009C196.277 36.5644 196.842 37.2266 197.717 37.2266ZM197.845 36.738C197.228 36.738 196.881 36.2366 196.881 35.3944C196.881 34.5973 197.324 34.0573 197.89 34.0573C198.179 34.0573 198.443 34.1602 198.745 34.4237V36.2559C198.449 36.5773 198.167 36.738 197.845 36.738Z" fill="white"/>
<path d="M202.389 37.143H202.986V35.2723H203.764C204.799 35.2723 205.5 34.8094 205.5 33.813C205.5 32.7844 204.793 32.4244 203.739 32.4244H202.389V37.143ZM202.986 34.7902V32.913H203.661C204.491 32.913 204.909 33.1316 204.909 33.813C204.909 34.488 204.516 34.7902 203.687 34.7902H202.986Z" fill="white"/>
<path d="M207.209 37.2266C207.37 37.2266 207.466 37.2073 207.55 37.1752L207.466 36.7252C207.402 36.738 207.376 36.738 207.344 36.738C207.254 36.738 207.177 36.6673 207.177 36.4873V32.0259H206.592V36.4487C206.592 36.9437 206.772 37.2266 207.209 37.2266Z" fill="white"/>
<path d="M209.421 37.2266C209.852 37.2266 210.244 37.0016 210.579 36.7252H210.598L210.649 37.143H211.131V34.9959C211.131 34.1345 210.771 33.5623 209.923 33.5623C209.364 33.5623 208.869 33.813 208.547 34.0187L208.779 34.4237C209.055 34.2373 209.421 34.0509 209.826 34.0509C210.399 34.0509 210.546 34.4816 210.546 34.9316C209.061 35.0987 208.399 35.478 208.399 36.2366C208.399 36.8666 208.836 37.2266 209.421 37.2266ZM209.589 36.7573C209.241 36.7573 208.971 36.5966 208.971 36.198C208.971 35.748 209.37 35.4587 210.546 35.3173V36.2944C210.206 36.5966 209.929 36.7573 209.589 36.7573Z" fill="white"/>
<path d="M213.444 37.2266C213.657 37.2266 213.888 37.1623 214.087 37.098L213.972 36.6609C213.856 36.7059 213.695 36.7509 213.573 36.7509C213.168 36.7509 213.033 36.5066 213.033 36.0759V34.128H213.978V33.6523H213.033V32.6687H212.544L212.474 33.6523L211.927 33.6844V34.128H212.448V36.063C212.448 36.7573 212.699 37.2266 213.444 37.2266Z" fill="white"/>
<path d="M215.058 37.143H215.643V34.128H216.382V33.6523H215.643V33.0994C215.643 32.6494 215.803 32.4116 216.138 32.4116C216.26 32.4116 216.401 32.4437 216.53 32.5016L216.658 32.058C216.498 31.9873 216.286 31.9423 216.073 31.9423C215.379 31.9423 215.058 32.3859 215.058 33.093V33.6523L214.582 33.6844V34.128H215.058V37.143Z" fill="white"/>
<path d="M218.532 37.2266C219.387 37.2266 220.152 36.558 220.152 35.4009C220.152 34.2373 219.387 33.5623 218.532 33.5623C217.677 33.5623 216.912 34.2373 216.912 35.4009C216.912 36.558 217.677 37.2266 218.532 37.2266ZM218.532 36.738C217.928 36.738 217.523 36.2044 217.523 35.4009C217.523 34.5973 217.928 34.0509 218.532 34.0509C219.136 34.0509 219.548 34.5973 219.548 35.4009C219.548 36.2044 219.136 36.738 218.532 36.738Z" fill="white"/>
<path d="M221.267 37.143H221.852V34.8994C222.083 34.3016 222.443 34.0959 222.733 34.0959C222.874 34.0959 222.958 34.1087 223.073 34.1537L223.183 33.6394C223.073 33.5816 222.964 33.5623 222.81 33.5623C222.418 33.5623 222.064 33.8452 221.82 34.2887H221.801L221.749 33.6523H221.267V37.143Z" fill="white"/>
<path d="M223.952 37.143H224.537V34.6102C224.859 34.2502 225.154 34.0766 225.418 34.0766C225.861 34.0766 226.067 34.353 226.067 35.0087V37.143H226.652V34.6102C226.98 34.2502 227.263 34.0766 227.533 34.0766C227.976 34.0766 228.182 34.353 228.182 35.0087V37.143H228.767V34.9316C228.767 34.038 228.426 33.5623 227.706 33.5623C227.282 33.5623 226.916 33.8387 226.556 34.2309C226.414 33.8194 226.125 33.5623 225.591 33.5623C225.174 33.5623 224.807 33.8259 224.505 34.1602H224.486L224.434 33.6523H223.952V37.143Z" fill="white"/>
<path d="M231.778 37.143H232.376V35.028H234.176V34.5266H232.376V32.9323H234.498V32.4244H231.778V37.143Z" fill="white"/>
<path d="M236.729 37.2266C237.584 37.2266 238.349 36.558 238.349 35.4009C238.349 34.2373 237.584 33.5623 236.729 33.5623C235.874 33.5623 235.109 34.2373 235.109 35.4009C235.109 36.558 235.874 37.2266 236.729 37.2266ZM236.729 36.738C236.125 36.738 235.72 36.2044 235.72 35.4009C235.72 34.5973 236.125 34.0509 236.729 34.0509C237.333 34.0509 237.745 34.5973 237.745 35.4009C237.745 36.2044 237.333 36.738 236.729 36.738Z" fill="white"/>
<path d="M239.464 37.143H240.049V34.8994C240.281 34.3016 240.641 34.0959 240.93 34.0959C241.071 34.0959 241.155 34.1087 241.271 34.1537L241.38 33.6394C241.271 33.5816 241.161 33.5623 241.007 33.5623C240.615 33.5623 240.261 33.8452 240.017 34.2887H239.998L239.946 33.6523H239.464V37.143Z" fill="white"/>
<path d="M244.699 37.143H245.387L246.885 32.4244H246.281L245.522 34.983C245.355 35.5359 245.239 35.9859 245.066 36.5387H245.04C244.86 35.9859 244.751 35.5359 244.583 34.983L243.818 32.4244H243.195L244.699 37.143Z" fill="white"/>
<path d="M248.92 37.2266C249.775 37.2266 250.54 36.558 250.54 35.4009C250.54 34.2373 249.775 33.5623 248.92 33.5623C248.065 33.5623 247.3 34.2373 247.3 35.4009C247.3 36.558 248.065 37.2266 248.92 37.2266ZM248.92 36.738C248.316 36.738 247.911 36.2044 247.911 35.4009C247.911 34.5973 248.316 34.0509 248.92 34.0509C249.524 34.0509 249.936 34.5973 249.936 35.4009C249.936 36.2044 249.524 36.738 248.92 36.738Z" fill="white"/>
<path d="M253.031 37.2266C253.449 37.2266 253.847 37.0659 254.162 36.783L253.905 36.3909C253.687 36.5902 253.404 36.738 253.082 36.738C252.439 36.738 252.002 36.2044 252.002 35.4009C252.002 34.5973 252.465 34.0509 253.102 34.0509C253.378 34.0509 253.59 34.1794 253.796 34.3594L254.098 33.9737C253.847 33.7552 253.532 33.5623 253.076 33.5623C252.182 33.5623 251.392 34.2373 251.392 35.4009C251.392 36.558 252.105 37.2266 253.031 37.2266Z" fill="white"/>
<path d="M255.853 37.2266C256.284 37.2266 256.676 37.0016 257.01 36.7252H257.03L257.081 37.143H257.563V34.9959C257.563 34.1345 257.203 33.5623 256.355 33.5623C255.795 33.5623 255.3 33.813 254.979 34.0187L255.21 34.4237C255.487 34.2373 255.853 34.0509 256.258 34.0509C256.83 34.0509 256.978 34.4816 256.978 34.9316C255.493 35.0987 254.831 35.478 254.831 36.2366C254.831 36.8666 255.268 37.2266 255.853 37.2266ZM256.02 36.7573C255.673 36.7573 255.403 36.5966 255.403 36.198C255.403 35.748 255.802 35.4587 256.978 35.3173V36.2944C256.638 36.5966 256.361 36.7573 256.02 36.7573Z" fill="white"/>
<path d="M259.876 37.2266C260.088 37.2266 260.32 37.1623 260.519 37.098L260.403 36.6609C260.288 36.7059 260.127 36.7509 260.005 36.7509C259.6 36.7509 259.465 36.5066 259.465 36.0759V34.128H260.41V33.6523H259.465V32.6687H258.976L258.906 33.6523L258.359 33.6844V34.128H258.88V36.063C258.88 36.7573 259.131 37.2266 259.876 37.2266Z" fill="white"/>
<path d="M261.393 37.143H261.978V33.6523H261.393V37.143ZM261.689 32.9323C261.92 32.9323 262.081 32.778 262.081 32.5402C262.081 32.3152 261.92 32.1609 261.689 32.1609C261.457 32.1609 261.297 32.3152 261.297 32.5402C261.297 32.778 261.457 32.9323 261.689 32.9323Z" fill="white"/>
<path d="M264.713 37.2266C265.568 37.2266 266.333 36.558 266.333 35.4009C266.333 34.2373 265.568 33.5623 264.713 33.5623C263.858 33.5623 263.093 34.2373 263.093 35.4009C263.093 36.558 263.858 37.2266 264.713 37.2266ZM264.713 36.738C264.108 36.738 263.703 36.2044 263.703 35.4009C263.703 34.5973 264.108 34.0509 264.713 34.0509C265.317 34.0509 265.728 34.5973 265.728 35.4009C265.728 36.2044 265.317 36.738 264.713 36.738Z" fill="white"/>
<path d="M267.448 37.143H268.033V34.6102C268.386 34.2566 268.631 34.0766 268.991 34.0766C269.453 34.0766 269.653 34.353 269.653 35.0087V37.143H270.238V34.9316C270.238 34.038 269.903 33.5623 269.171 33.5623C268.695 33.5623 268.335 33.8259 268.001 34.1537H267.981L267.93 33.6523H267.448V37.143Z" fill="white"/>
<path d="M272.374 37.2266C272.805 37.2266 273.197 37.0016 273.531 36.7252H273.551L273.602 37.143H274.084V34.9959C274.084 34.1345 273.724 33.5623 272.876 33.5623C272.316 33.5623 271.821 33.813 271.5 34.0187L271.731 34.4237C272.008 34.2373 272.374 34.0509 272.779 34.0509C273.351 34.0509 273.499 34.4816 273.499 34.9316C272.014 35.0987 271.352 35.478 271.352 36.2366C271.352 36.8666 271.789 37.2266 272.374 37.2266ZM272.541 36.7573C272.194 36.7573 271.924 36.5966 271.924 36.198C271.924 35.748 272.323 35.4587 273.499 35.3173V36.2944C273.158 36.5966 272.882 36.7573 272.541 36.7573Z" fill="white"/>
<path d="M276.009 37.2266C276.17 37.2266 276.266 37.2073 276.35 37.1752L276.266 36.7252C276.202 36.738 276.176 36.738 276.144 36.738C276.054 36.738 275.977 36.6673 275.977 36.4873V32.0259H275.392V36.4487C275.392 36.9437 275.572 37.2266 276.009 37.2266Z" fill="white"/>
<path d="M279.1 37.143H281.89V36.6352H279.698V34.9187H281.485V34.4109H279.698V32.9323H281.819V32.4244H279.1V37.143Z" fill="white"/>
<path d="M284.141 37.2266C284.559 37.2266 284.925 37.0016 285.202 36.7316H285.221L285.272 37.143H285.748V32.0259H285.17V33.3694L285.195 33.9737C284.887 33.7166 284.623 33.5623 284.212 33.5623C283.415 33.5623 282.701 34.2694 282.701 35.4009C282.701 36.5644 283.267 37.2266 284.141 37.2266ZM284.27 36.738C283.652 36.738 283.305 36.2366 283.305 35.3944C283.305 34.5973 283.749 34.0573 284.315 34.0573C284.604 34.0573 284.867 34.1602 285.17 34.4237V36.2559C284.874 36.5773 284.591 36.738 284.27 36.738Z" fill="white"/>
<path d="M288.147 37.2266C288.629 37.2266 288.976 36.9759 289.304 36.5966H289.323L289.368 37.143H289.857V33.6523H289.272V36.1273C288.937 36.5452 288.687 36.7187 288.327 36.7187C287.864 36.7187 287.671 36.4423 287.671 35.793V33.6523H287.086V35.8637C287.086 36.7509 287.414 37.2266 288.147 37.2266Z" fill="white"/>
<path d="M292.604 37.2266C293.022 37.2266 293.421 37.0659 293.736 36.783L293.479 36.3909C293.26 36.5902 292.977 36.738 292.656 36.738C292.013 36.738 291.576 36.2044 291.576 35.4009C291.576 34.5973 292.039 34.0509 292.675 34.0509C292.952 34.0509 293.164 34.1794 293.369 34.3594L293.672 33.9737C293.421 33.7552 293.106 33.5623 292.649 33.5623C291.756 33.5623 290.965 34.2373 290.965 35.4009C290.965 36.558 291.679 37.2266 292.604 37.2266Z" fill="white"/>
<path d="M295.427 37.2266C295.858 37.2266 296.25 37.0016 296.584 36.7252H296.603L296.655 37.143H297.137V34.9959C297.137 34.1345 296.777 33.5623 295.928 33.5623C295.369 33.5623 294.874 33.813 294.553 34.0187L294.784 34.4237C295.06 34.2373 295.427 34.0509 295.832 34.0509C296.404 34.0509 296.552 34.4816 296.552 34.9316C295.067 35.0987 294.405 35.478 294.405 36.2366C294.405 36.8666 294.842 37.2266 295.427 37.2266ZM295.594 36.7573C295.247 36.7573 294.977 36.5966 294.977 36.198C294.977 35.748 295.375 35.4587 296.552 35.3173V36.2944C296.211 36.5966 295.935 36.7573 295.594 36.7573Z" fill="white"/>
<path d="M299.45 37.2266C299.662 37.2266 299.893 37.1623 300.093 37.098L299.977 36.6609C299.861 36.7059 299.701 36.7509 299.578 36.7509C299.173 36.7509 299.038 36.5066 299.038 36.0759V34.128H299.983V33.6523H299.038V32.6687H298.55L298.479 33.6523L297.933 33.6844V34.128H298.453V36.063C298.453 36.7573 298.704 37.2266 299.45 37.2266Z" fill="white"/>
<path d="M300.967 37.143H301.552V33.6523H300.967V37.143ZM301.262 32.9323C301.494 32.9323 301.655 32.778 301.655 32.5402C301.655 32.3152 301.494 32.1609 301.262 32.1609C301.031 32.1609 300.87 32.3152 300.87 32.5402C300.87 32.778 301.031 32.9323 301.262 32.9323Z" fill="white"/>
<path d="M304.286 37.2266C305.141 37.2266 305.906 36.558 305.906 35.4009C305.906 34.2373 305.141 33.5623 304.286 33.5623C303.431 33.5623 302.666 34.2373 302.666 35.4009C302.666 36.558 303.431 37.2266 304.286 37.2266ZM304.286 36.738C303.682 36.738 303.277 36.2044 303.277 35.4009C303.277 34.5973 303.682 34.0509 304.286 34.0509C304.891 34.0509 305.302 34.5973 305.302 35.4009C305.302 36.2044 304.891 36.738 304.286 36.738Z" fill="white"/>
<path d="M307.021 37.143H307.606V34.6102C307.96 34.2566 308.204 34.0766 308.564 34.0766C309.027 34.0766 309.226 34.353 309.226 35.0087V37.143H309.811V34.9316C309.811 34.038 309.477 33.5623 308.744 33.5623C308.269 33.5623 307.909 33.8259 307.574 34.1537H307.555L307.504 33.6523H307.021V37.143Z" fill="white"/>
<line opacity="0.5" x1="171.137" y1="8.57141" x2="171.137" y2="37.1428" stroke="white" stroke-width="1.5"/>
<path fill-rule="evenodd" clip-rule="evenodd" d="M0.00974718 12.8843L0 31.8091L1.34024 33.1476V11.5506L0.00974718 12.8843ZM32.5994 19.027L12.7249 0.17523L11.8428 1.09032L11.8526 43.6614L13.1928 45V25.9778L32.7652 44.9173L33.9494 43.6955L13.1928 23.6171V21.3683L35.1824 42.5127L36.3131 41.3445L13.1928 19.0222V16.7052L37.5559 40.1422L38.6963 38.9643L13.1928 14.3494V12.1055L39.8903 37.801L41.0892 36.6425L13.1928 9.75446V7.36939L42.3418 35.3575L43.4724 34.1893L13.1928 5.05733V2.48729L44.8175 32.914L45.7143 32.0135L45.7045 13.0546L44.4666 11.8475L44.5397 30.4608L43.297 29.3461V10.6988L42.1127 9.51109L42.1614 28.2363L40.9918 27.0341L41.0161 8.41103L39.7977 7.20876L39.7831 25.9438L38.6135 24.7415L38.6329 6.02109L37.4292 4.83342L37.4097 23.6512L36.24 22.5219L36.2595 3.67983L34.9193 2.34127L34.929 21.3099L33.8617 20.2244L33.8666 1.26068L32.5848 0L32.5994 19.027ZM9.39628 3.50946L9.39141 41.2034L10.7316 42.5419V2.22931L9.39628 3.50946ZM7.02284 5.8848L7.01797 38.828L8.35821 40.1666L8.35333 4.57545L7.02284 5.8848ZM4.63478 8.25527V36.4429L5.97502 37.7815L5.9604 6.95078L4.63478 8.25527ZM2.2516 10.6209L2.26135 34.0627L3.59671 35.4013V9.30665L2.2516 10.6209Z" fill="white"/>
<path fill-rule="evenodd" clip-rule="evenodd" d="M73.6286 14.0494H65.604V13.6435L65.857 13.1544L61.4282 12.4155L61.4388 31.0026L65.604 30.2013V29.1189H73.6286V37.1429H78.901V29.1189H86.7041V30.8465L91.1013 30.2013V13.6331L91.4282 13.0607L86.7041 12.4155V14.039H78.901L78.8904 10.0947L79.3122 9.65758L73.618 7.85715V14.0494H73.6286ZM65.604 27.4954V15.5688H73.6286V27.4954H65.604ZM78.901 27.4954V15.6729H86.7041V27.4954H78.901Z" fill="white"/>
<path fill-rule="evenodd" clip-rule="evenodd" d="M100.309 11.3227L97.0511 11.3331L97.3271 12.6236H100.309V17.0675L95.7457 17.0779L96.1066 18.3684L101.233 18.4412L95.7245 23.4262V25.8615L100.426 21.7299H104.735L102.538 23.8946H101.307V25.2995H102.538V27.5371L95.7245 30.5239L95.7139 33.5316L102.517 30.6072V35.4881L97.6136 35.5193L99.3011 37.1116L104.586 37.1324L106.9 34.8741L106.964 28.5778L111.358 26.6629L111.294 23.676L106.974 25.5701L106.964 24.4565L109.957 22.1045L108.365 20.5122H101.731L103.96 18.3996L111.421 18.4204L112.578 16.8281V27.152C112.843 27.5371 115.401 30.2845 115.401 30.3262L108.428 37.1324L113.321 37.1429L117.694 32.9384L121.419 37.1324L126.428 37.1429L120.389 30.3678L123.637 27.152V16.1204L123.955 15.7041L119.668 13.6019L119.646 26.0592L118.192 27.6932L116.59 26.0592L116.569 17.619L116.887 17.2028L113.257 15.6625L114.775 13.4978L125.834 13.4666L124.868 11.1146L122.767 12.1969H115.433L117.046 9.8241L117.545 9.63677L114.075 7.99244L108.439 17.0258H105.52L109.925 13.0503L109.139 11.3227H104.629V9.99062L104.947 9.31415L100.32 7.85715V11.3227H100.309ZM104.629 12.6132H107.717L104.629 15.4023V12.6132Z" fill="white"/>
<path fill-rule="evenodd" clip-rule="evenodd" d="M156.372 18.135L130.714 18.1457L131.202 19.4683H139.298L132.166 33.1427L135.514 37.1426H158.963L155.397 23.7989L149.519 23.8522L150.245 24.5989L153.023 35.5853H136.706L145.134 19.4683L160 19.4363L158.808 16.4284L156.372 18.135Z" fill="white"/>
<path fill-rule="evenodd" clip-rule="evenodd" d="M134.286 9.67835H152.993L155.453 8.57121L156.429 10.7141H134.826L134.286 9.67835Z" fill="white"/>
</svg>
